<?xml version="1.0" standalone="no"?>
<!DOCTYPE svg PUBLIC "-//W3C//DTD SVG 20010904//EN"
 "http://www.w3.org/TR/2001/REC-SVG-20010904/DTD/svg10.dtd">
<svg version="1.0" xmlns="http://www.w3.org/2000/svg"
 width="1280.000000pt" height="1280.000000pt" viewBox="0 0 1280.000000 1280.000000"
 preserveAspectRatio="xMidYMid meet">

<g transform="translate(0.000000,1280.000000) scale(0.100000,-0.100000)"
fill="#000000" stroke="none">
<path d="M6195 12744 c-823 -40 -1476 -179 -2185 -464 -185 -74 -554 -252
-729 -352 -1558 -887 -2667 -2370 -3065 -4098 -111 -485 -159 -914 -159 -1430
0 -307 10 -490 44 -770 132 -1106 560 -2162 1239 -3060 824 -1088 1989 -1890
3290 -2265 596 -171 1143 -248 1770 -248 308 0 492 10 770 44 1709 204 3267
1107 4308 2494 456 607 809 1314 1017 2035 172 597 249 1146 248 1775 0 472
-41 870 -134 1310 -219 1038 -701 2012 -1392 2816 -1100 1279 -2633 2060
-4305 2194 -180 14 -590 25 -717 19z m920 -2584 c715 -9 929 -18 1150 -46 635
-81 1121 -348 1455 -799 250 -339 379 -736 420 -1295 21 -291 32 -1145 26
-1980 -7 -1059 -19 -1328 -67 -1620 -60 -359 -179 -659 -366 -924 -80 -113
-336 -366 -451 -446 -292 -204 -645 -328 -1067 -374 -276 -31 -545 -38 -1569
-43 -1655 -8 -2099 14 -2486 122 -391 110 -652 264 -925 546 -325 336 -497
736 -559 1299 -33 302 -41 615 -40 1785 0 1170 8 1521 40 1820 63 581 276
1036 645 1379 314 292 713 467 1214 530 269 35 390 38 1755 54 63 0 435 -3
825 -8z"/>
<path d="M5250 9480 c-335 -9 -552 -24 -690 -46 -372 -61 -620 -181 -836 -406
-173 -181 -280 -396 -339 -686 -60 -292 -69 -550 -69 -1942 0 -1391 9 -1650
69 -1941 42 -208 117 -394 216 -540 60 -89 203 -235 296 -301 151 -109 346
-189 563 -233 292 -59 554 -69 1940 -69 1362 0 1647 10 1925 65 209 42 387
110 535 206 99 65 276 237 340 332 149 222 230 494 260 871 31 395 38 2435 10
3025 -16 353 -46 547 -111 737 -71 210 -155 346 -308 499 -116 116 -189 170
-321 235 -230 114 -464 162 -905 184 -258 13 -2190 21 -2575 10z m3289 -639
c33 -10 80 -30 103 -44 54 -31 139 -120 166 -173 72 -141 68 -312 -11 -446
-32 -56 -121 -139 -178 -168 -136 -70 -308 -65 -441 13 -54 31 -139 120 -166
173 -69 135 -69 293 0 428 27 53 112 142 166 173 106 62 247 80 361 44z
m-1887 -526 c867 -114 1550 -796 1663 -1661 94 -715 -216 -1419 -807 -1837
-623 -440 -1474 -464 -2125 -59 -423 262 -730 678 -853 1157 -171 663 22 1369
504 1851 301 299 688 492 1103 549 134 18 378 18 515 0z"/>
<path d="M6176 7634 c-449 -81 -833 -419 -970 -852 -76 -241 -76 -522 0 -764
98 -312 331 -585 627 -734 184 -93 357 -134 567 -134 344 0 644 124 885 365
241 241 365 542 365 885 0 343 -124 644 -365 885 -186 186 -414 305 -672 350
-107 19 -331 18 -437 -1z"/>
</g>
</svg>
