<?xml version="1.0" standalone="no"?>
<!DOCTYPE svg PUBLIC "-//W3C//DTD SVG 20010904//EN"
 "http://www.w3.org/TR/2001/REC-SVG-20010904/DTD/svg10.dtd">
<svg version="1.0" xmlns="http://www.w3.org/2000/svg"
 width="200.000000pt" height="203.000000pt" viewBox="0 0 200.000000 203.000000"
 preserveAspectRatio="xMidYMid meet">

<g transform="translate(0.000000,203.000000) scale(0.100000,-0.100000)"
fill="#000000" stroke="none">
<path d="M865 1924 c-11 -2 -51 -11 -88 -20 -263 -60 -494 -252 -613 -510
-206 -444 -14 -983 428 -1205 89 -45 230 -84 340 -94 91 -8 245 9 337 37 276
84 509 307 603 578 55 159 65 362 24 521 -44 173 -112 296 -235 423 -119 123
-235 193 -398 242 -74 22 -111 27 -233 30 -80 1 -154 1 -165 -2z m233 -420
c82 -17 184 -61 190 -82 3 -9 -24 -12 -115 -10 -74 2 -131 -2 -154 -10 -76
-26 -117 -107 -104 -206 4 -28 25 -104 47 -169 22 -65 37 -121 34 -124 -3 -3
-84 7 -181 22 l-175 27 -10 37 c-18 61 -24 221 -11 282 16 75 66 157 117 191
84 56 218 72 362 42z m97 -209 c57 -33 105 -104 105 -155 0 -100 -127 -143
-237 -80 -91 52 -130 154 -81 215 47 61 131 69 213 20z m194 -50 c74 -78 105
-149 109 -253 4 -80 2 -87 -33 -159 -39 -78 -109 -157 -188 -212 -103 -71
-277 -141 -409 -166 l-35 -7 -41 94 c-79 179 -153 370 -147 376 3 3 43 0 88
-7 194 -29 230 -32 301 -21 146 22 254 74 296 142 36 60 36 101 -6 246 -10 36
9 26 65 -33z"/>
</g>
</svg>
