<?xml version="1.0" standalone="no"?>
<!DOCTYPE svg PUBLIC "-//W3C//DTD SVG 20010904//EN"
 "http://www.w3.org/TR/2001/REC-SVG-20010904/DTD/svg10.dtd">
<svg version="1.0" xmlns="http://www.w3.org/2000/svg"
 width="447.000000pt" height="447.000000pt" viewBox="0 0 447.000000 447.000000"
 preserveAspectRatio="xMidYMid meet">

<g transform="translate(0.000000,447.000000) scale(0.100000,-0.100000)"
fill="#000000" stroke="none">
<path d="M2055 4464 c-125 -13 -325 -50 -429 -80 -385 -111 -709 -305 -992
-595 -323 -332 -526 -733 -605 -1199 -19 -113 -23 -171 -23 -355 0 -184 4
-242 23 -355 79 -466 282 -867 605 -1199 344 -352 758 -569 1246 -652 194 -33
516 -33 710 0 488 83 902 300 1246 652 324 333 526 734 605 1199 33 195 33
517 0 710 -83 488 -300 902 -652 1246 -413 402 -932 619 -1509 629 -102 2
-203 1 -225 -1z m-598 -974 c193 -83 220 -362 48 -482 -22 -15 -71 -35 -109
-45 -59 -14 -79 -15 -140 -4 -148 25 -235 117 -244 257 -12 182 128 312 324
300 42 -3 92 -13 121 -26z m1643 -745 c196 -51 339 -193 403 -400 43 -136 47
-206 47 -746 l0 -509 -274 0 -275 0 -3 513 c-3 504 -3 513 -26 568 -44 109
-123 163 -242 163 -61 0 -84 -5 -125 -26 -64 -34 -118 -90 -147 -153 -23 -50
-23 -52 -26 -557 l-3 -508 -270 0 -269 0 0 820 0 820 270 0 269 0 3 -112 3
-111 44 57 c78 101 198 171 336 196 68 12 208 5 285 -15z m-1512 -837 l2 -818
-275 0 -275 0 0 820 0 820 273 -2 272 -3 3 -817z"/>
</g>
</svg>
